<?xml version="1.0" encoding="iso-8859-1"?>
<!-- Generator: Adobe Illustrator 19.0.0, SVG Export Plug-In . SVG Version: 6.00 Build 0)  -->
<svg version="1.1" id="Layer_1" xmlns="http://www.w3.org/2000/svg" xmlns:xlink="http://www.w3.org/1999/xlink" x="0px" y="0px"
	 viewBox="0 0 460.346 460.346" style="enable-background:new 0 0 460.346 460.346;" xml:space="preserve">
<g>
	<g>
		<g>
			<path d="M364.814,340.29h0.002c0,13-12.891,26.718-35.368,37.636c-26.494,12.869-62.077,19.957-100.194,19.957
				s-73.7-7.088-100.194-19.957c-22.477-10.918-35.368-24.636-35.368-37.636v-77.438l-32.106-17.528v94.966
				c0,26.152,18.981,49.774,53.445,66.516c30.778,14.95,71.344,23.184,114.222,23.184c42.878,0,83.444-8.233,114.222-23.184
				c34.464-16.741,53.445-40.364,53.445-66.516v-94.966l-32.106,17.528V340.29z"/>
			<path d="M176.281,165.262c0,23.974,23.268,42.753,52.972,42.753c29.704,0,52.972-18.779,52.972-42.753
				s-23.268-42.753-52.972-42.753C199.549,122.509,176.281,141.288,176.281,165.262z M250.12,165.262
				c0,4.239-8.322,10.647-20.867,10.647c-12.544,0-20.867-6.409-20.867-10.647c0-4.238,8.322-10.648,20.867-10.648
				C241.798,154.615,250.12,161.023,250.12,165.262z"/>
			<path d="M455.24,153.512c-3.3-4.885,10.215,3.483-214.093-118.982c-3.477-2.783-7.685-4.174-11.893-4.174
				c-4.208,0-8.417,1.392-11.893,4.174L7.138,149.304C2.627,152.916,0,158.382,0,164.161s2.627,11.245,7.138,14.857L217.36,293.792
				c3.477,2.783,7.684,4.174,11.893,4.174c4.209,0,8.417-1.391,11.893-4.174L428.24,191.645v36.579v98.039
				c0,8.866,7.187,16.053,16.053,16.053c8.866,0,16.053-7.187,16.053-16.053V210.696v-45.465
				C460.346,160.601,458.375,156.442,455.24,153.512z M229.253,265.306L46.319,164.161L229.253,63.017l182.935,101.144
				L229.253,265.306z"/>
		</g>
	</g>
</g>
<g>
</g>
<g>
</g>
<g>
</g>
<g>
</g>
<g>
</g>
<g>
</g>
<g>
</g>
<g>
</g>
<g>
</g>
<g>
</g>
<g>
</g>
<g>
</g>
<g>
</g>
<g>
</g>
<g>
</g>
</svg>
